<svg xmlns="http://www.w3.org/2000/svg" width="48" height="48" viewBox="0 0 48 48" shape-rendering="crispEdges">
<title>火焰鸡 flamechick</title>
<!--
speciesId: flamechick
name: 火焰鸡
16x16 ASCII sketch (char = palette key, . = transparent)
00 ................
01 .......Y........
02 ......YYY.......
03 ...Y..YYY..Y....
04 ..YYY.YYY.YYY...
05 ...KOOOOOOOOK...
06 ...KOKWOOWKOK...
07 ..KOOOOYYOOOOK..
08 ..KOOOYYYYOOOK..
09 ..KGGOOOOOOGGK..
10 ..KGGEEEEEEGGK..
11 ..KGGEEEEEEGGK..
12 ...KOOOOOOOOK...
13 ....KOOOOOOK....
14 .....O....O.....
15 ....YYY..YYY....
-->
<rect x="21" y="3" width="3" height="3" fill="#FFD23F"/>
<rect x="18" y="6" width="9" height="3" fill="#FFD23F"/>
<rect x="9" y="9" width="3" height="3" fill="#FFD23F"/>
<rect x="18" y="9" width="9" height="3" fill="#FFD23F"/>
<rect x="33" y="9" width="3" height="3" fill="#FFD23F"/>
<rect x="6" y="12" width="9" height="3" fill="#FFD23F"/>
<rect x="18" y="12" width="9" height="3" fill="#FFD23F"/>
<rect x="30" y="12" width="9" height="3" fill="#FFD23F"/>
<rect x="9" y="15" width="3" height="3" fill="#23262E"/>
<rect x="12" y="15" width="24" height="3" fill="#FF7A2F"/>
<rect x="36" y="15" width="3" height="3" fill="#23262E"/>
<rect x="9" y="18" width="3" height="3" fill="#23262E"/>
<rect x="12" y="18" width="3" height="3" fill="#FF7A2F"/>
<rect x="15" y="18" width="3" height="3" fill="#23262E"/>
<rect x="18" y="18" width="3" height="3" fill="#FFFFFF"/>
<rect x="21" y="18" width="6" height="3" fill="#FF7A2F"/>
<rect x="27" y="18" width="3" height="3" fill="#FFFFFF"/>
<rect x="30" y="18" width="3" height="3" fill="#23262E"/>
<rect x="33" y="18" width="3" height="3" fill="#FF7A2F"/>
<rect x="36" y="18" width="3" height="3" fill="#23262E"/>
<rect x="6" y="21" width="3" height="3" fill="#23262E"/>
<rect x="9" y="21" width="12" height="3" fill="#FF7A2F"/>
<rect x="21" y="21" width="6" height="3" fill="#FFD23F"/>
<rect x="27" y="21" width="12" height="3" fill="#FF7A2F"/>
<rect x="39" y="21" width="3" height="3" fill="#23262E"/>
<rect x="6" y="24" width="3" height="3" fill="#23262E"/>
<rect x="9" y="24" width="9" height="3" fill="#FF7A2F"/>
<rect x="18" y="24" width="12" height="3" fill="#FFD23F"/>
<rect x="30" y="24" width="9" height="3" fill="#FF7A2F"/>
<rect x="39" y="24" width="3" height="3" fill="#23262E"/>
<rect x="6" y="27" width="3" height="3" fill="#23262E"/>
<rect x="9" y="27" width="6" height="3" fill="#F5A623"/>
<rect x="15" y="27" width="18" height="3" fill="#FF7A2F"/>
<rect x="33" y="27" width="6" height="3" fill="#F5A623"/>
<rect x="39" y="27" width="3" height="3" fill="#23262E"/>
<rect x="6" y="30" width="3" height="3" fill="#23262E"/>
<rect x="9" y="30" width="6" height="3" fill="#F5A623"/>
<rect x="15" y="30" width="18" height="3" fill="#FFE9B0"/>
<rect x="33" y="30" width="6" height="3" fill="#F5A623"/>
<rect x="39" y="30" width="3" height="3" fill="#23262E"/>
<rect x="6" y="33" width="3" height="3" fill="#23262E"/>
<rect x="9" y="33" width="6" height="3" fill="#F5A623"/>
<rect x="15" y="33" width="18" height="3" fill="#FFE9B0"/>
<rect x="33" y="33" width="6" height="3" fill="#F5A623"/>
<rect x="39" y="33" width="3" height="3" fill="#23262E"/>
<rect x="9" y="36" width="3" height="3" fill="#23262E"/>
<rect x="12" y="36" width="24" height="3" fill="#FF7A2F"/>
<rect x="36" y="36" width="3" height="3" fill="#23262E"/>
<rect x="12" y="39" width="3" height="3" fill="#23262E"/>
<rect x="15" y="39" width="18" height="3" fill="#FF7A2F"/>
<rect x="33" y="39" width="3" height="3" fill="#23262E"/>
<rect x="15" y="42" width="3" height="3" fill="#FF7A2F"/>
<rect x="30" y="42" width="3" height="3" fill="#FF7A2F"/>
<rect x="12" y="45" width="9" height="3" fill="#FFD23F"/>
<rect x="27" y="45" width="9" height="3" fill="#FFD23F"/>
</svg>
