<svg xmlns="http://www.w3.org/2000/svg" width="48" height="48" viewBox="0 0 48 48" shape-rendering="crispEdges">
  <rect x="3" y="0" width="42" height="3" fill="#23262E"/>
  <rect x="3" y="3" width="3" height="3" fill="#23262E"/>
  <rect x="6" y="3" width="36" height="3" fill="#F2F4F7"/>
  <rect x="42" y="3" width="3" height="3" fill="#23262E"/>
  <rect x="3" y="6" width="42" height="3" fill="#23262E"/>
  <rect x="3" y="9" width="3" height="6" fill="#23262E"/>
  <rect x="6" y="9" width="3" height="6" fill="#F2F4F7"/>
  <rect x="9" y="9" width="6" height="6" fill="#23262E"/>
  <rect x="15" y="9" width="3" height="6" fill="#F2F4F7"/>
  <rect x="18" y="9" width="6" height="6" fill="#23262E"/>
  <rect x="24" y="9" width="3" height="6" fill="#F2F4F7"/>
  <rect x="27" y="9" width="6" height="6" fill="#23262E"/>
  <rect x="33" y="9" width="3" height="6" fill="#F2F4F7"/>
  <rect x="36" y="9" width="9" height="6" fill="#23262E"/>
  <rect x="6" y="15" width="36" height="3" fill="#23262E"/>
  <rect x="6" y="18" width="3" height="3" fill="#23262E"/>
  <rect x="9" y="18" width="3" height="3" fill="#F2F4F7"/>
  <rect x="12" y="18" width="6" height="3" fill="#23262E"/>
  <rect x="18" y="18" width="3" height="3" fill="#F2F4F7"/>
  <rect x="21" y="18" width="6" height="3" fill="#23262E"/>
  <rect x="27" y="18" width="3" height="3" fill="#F2F4F7"/>
  <rect x="30" y="18" width="6" height="3" fill="#23262E"/>
  <rect x="36" y="18" width="3" height="3" fill="#F2F4F7"/>
  <rect x="39" y="18" width="3" height="3" fill="#23262E"/>
  <rect x="9" y="21" width="30" height="3" fill="#23262E"/>
  <rect x="9" y="24" width="3" height="6" fill="#23262E"/>
  <rect x="12" y="24" width="24" height="6" fill="#6B2320"/>
  <rect x="36" y="24" width="3" height="6" fill="#23262E"/>
  <rect x="9" y="30" width="30" height="3" fill="#23262E"/>
  <rect x="6" y="33" width="3" height="3" fill="#23262E"/>
  <rect x="9" y="33" width="6" height="3" fill="#F2F4F7"/>
  <rect x="15" y="33" width="6" height="3" fill="#23262E"/>
  <rect x="21" y="33" width="3" height="3" fill="#F2F4F7"/>
  <rect x="24" y="33" width="6" height="3" fill="#23262E"/>
  <rect x="30" y="33" width="3" height="3" fill="#F2F4F7"/>
  <rect x="33" y="33" width="3" height="3" fill="#23262E"/>
  <rect x="36" y="33" width="3" height="3" fill="#F2F4F7"/>
  <rect x="39" y="33" width="3" height="3" fill="#23262E"/>
  <rect x="6" y="36" width="36" height="3" fill="#23262E"/>
  <rect x="3" y="39" width="3" height="6" fill="#23262E"/>
  <rect x="6" y="39" width="3" height="3" fill="#F2F4F7"/>
  <rect x="9" y="39" width="6" height="3" fill="#23262E"/>
  <rect x="15" y="39" width="3" height="3" fill="#F2F4F7"/>
  <rect x="18" y="39" width="6" height="3" fill="#23262E"/>
  <rect x="24" y="39" width="3" height="3" fill="#F2F4F7"/>
  <rect x="27" y="39" width="6" height="3" fill="#23262E"/>
  <rect x="33" y="39" width="3" height="3" fill="#F2F4F7"/>
  <rect x="36" y="39" width="9" height="3" fill="#23262E"/>
  <rect x="6" y="42" width="36" height="3" fill="#F2F4F7"/>
  <rect x="42" y="42" width="3" height="3" fill="#23262E"/>
  <rect x="3" y="45" width="42" height="3" fill="#23262E"/>
</svg>
