<svg xmlns="http://www.w3.org/2000/svg" width="48" height="48" viewBox="0 0 48 48" shape-rendering="crispEdges">
  <rect x="0" y="0" width="18" height="3" fill="#A8D8EC"/>
  <rect x="18" y="0" width="12" height="3" fill="#5FA9CC"/>
  <rect x="30" y="0" width="9" height="3" fill="#23262E"/>
  <rect x="0" y="3" width="9" height="3" fill="#23262E"/>
  <rect x="9" y="3" width="3" height="3" fill="#A8D8EC"/>
  <rect x="12" y="3" width="3" height="3" fill="#EAF4FA"/>
  <rect x="15" y="3" width="12" height="3" fill="#A8D8EC"/>
  <rect x="27" y="3" width="9" height="3" fill="#5FA9CC"/>
  <rect x="36" y="3" width="6" height="3" fill="#23262E"/>
  <rect x="6" y="6" width="3" height="9" fill="#23262E"/>
  <rect x="9" y="6" width="9" height="9" fill="#EAF4FA"/>
  <rect x="18" y="6" width="3" height="3" fill="#23262E"/>
  <rect x="21" y="6" width="9" height="3" fill="#A8D8EC"/>
  <rect x="30" y="6" width="9" height="3" fill="#5FA9CC"/>
  <rect x="39" y="6" width="6" height="3" fill="#23262E"/>
  <rect x="18" y="9" width="6" height="3" fill="#23262E"/>
  <rect x="24" y="9" width="9" height="3" fill="#A8D8EC"/>
  <rect x="33" y="9" width="9" height="3" fill="#5FA9CC"/>
  <rect x="42" y="9" width="3" height="3" fill="#23262E"/>
  <rect x="18" y="12" width="9" height="3" fill="#23262E"/>
  <rect x="27" y="12" width="9" height="3" fill="#A8D8EC"/>
  <rect x="36" y="12" width="6" height="3" fill="#5FA9CC"/>
  <rect x="42" y="12" width="6" height="3" fill="#23262E"/>
  <rect x="6" y="15" width="15" height="3" fill="#23262E"/>
  <rect x="24" y="15" width="6" height="3" fill="#23262E"/>
  <rect x="30" y="15" width="9" height="3" fill="#A8D8EC"/>
  <rect x="39" y="15" width="6" height="15" fill="#5FA9CC"/>
  <rect x="45" y="15" width="3" height="15" fill="#23262E"/>
  <rect x="6" y="18" width="3" height="12" fill="#23262E"/>
  <rect x="9" y="18" width="9" height="12" fill="#EAF4FA"/>
  <rect x="18" y="18" width="3" height="12" fill="#23262E"/>
  <rect x="27" y="18" width="6" height="3" fill="#23262E"/>
  <rect x="33" y="18" width="6" height="9" fill="#A8D8EC"/>
  <rect x="30" y="21" width="3" height="3" fill="#23262E"/>
  <rect x="27" y="24" width="6" height="3" fill="#23262E"/>
  <rect x="24" y="27" width="6" height="3" fill="#23262E"/>
  <rect x="30" y="27" width="9" height="3" fill="#A8D8EC"/>
  <rect x="6" y="30" width="21" height="3" fill="#23262E"/>
  <rect x="27" y="30" width="9" height="3" fill="#A8D8EC"/>
  <rect x="36" y="30" width="6" height="3" fill="#5FA9CC"/>
  <rect x="42" y="30" width="6" height="3" fill="#23262E"/>
  <rect x="6" y="33" width="3" height="6" fill="#23262E"/>
  <rect x="9" y="33" width="9" height="9" fill="#EAF4FA"/>
  <rect x="18" y="33" width="6" height="3" fill="#23262E"/>
  <rect x="24" y="33" width="9" height="3" fill="#A8D8EC"/>
  <rect x="33" y="33" width="9" height="3" fill="#5FA9CC"/>
  <rect x="42" y="33" width="3" height="3" fill="#23262E"/>
  <rect x="18" y="36" width="3" height="3" fill="#23262E"/>
  <rect x="21" y="36" width="9" height="3" fill="#A8D8EC"/>
  <rect x="30" y="36" width="9" height="3" fill="#5FA9CC"/>
  <rect x="39" y="36" width="6" height="3" fill="#23262E"/>
  <rect x="0" y="39" width="9" height="3" fill="#23262E"/>
  <rect x="18" y="39" width="9" height="3" fill="#A8D8EC"/>
  <rect x="27" y="39" width="9" height="3" fill="#5FA9CC"/>
  <rect x="36" y="39" width="6" height="3" fill="#23262E"/>
  <rect x="0" y="42" width="12" height="3" fill="#A8D8EC"/>
  <rect x="12" y="42" width="3" height="3" fill="#EAF4FA"/>
  <rect x="15" y="42" width="3" height="3" fill="#A8D8EC"/>
  <rect x="18" y="42" width="12" height="3" fill="#5FA9CC"/>
  <rect x="30" y="42" width="9" height="3" fill="#23262E"/>
  <rect x="0" y="45" width="24" height="3" fill="#5FA9CC"/>
  <rect x="24" y="45" width="9" height="3" fill="#23262E"/>
</svg>
