<svg xmlns="http://www.w3.org/2000/svg" width="48" height="48" viewBox="0 0 48 48" shape-rendering="crispEdges">
  <rect x="18" y="6" width="18" height="3" fill="#23262E"/>
  <rect x="15" y="9" width="3" height="3" fill="#23262E"/>
  <rect x="18" y="9" width="18" height="3" fill="#C0453B"/>
  <rect x="36" y="9" width="6" height="3" fill="#23262E"/>
  <rect x="6" y="12" width="3" height="6" fill="#23262E"/>
  <rect x="12" y="12" width="3" height="6" fill="#23262E"/>
  <rect x="15" y="12" width="27" height="3" fill="#C0453B"/>
  <rect x="42" y="12" width="3" height="3" fill="#23262E"/>
  <rect x="15" y="15" width="3" height="3" fill="#C0453B"/>
  <rect x="18" y="15" width="3" height="3" fill="#8A2F28"/>
  <rect x="21" y="15" width="18" height="3" fill="#C0453B"/>
  <rect x="39" y="15" width="6" height="3" fill="#23262E"/>
  <rect x="0" y="18" width="3" height="6" fill="#8A2F28"/>
  <rect x="6" y="18" width="6" height="3" fill="#23262E"/>
  <rect x="12" y="18" width="18" height="3" fill="#C0453B"/>
  <rect x="30" y="18" width="3" height="3" fill="#E8A79F"/>
  <rect x="33" y="18" width="6" height="3" fill="#C0453B"/>
  <rect x="39" y="18" width="3" height="9" fill="#23262E"/>
  <rect x="3" y="21" width="3" height="3" fill="#23262E"/>
  <rect x="9" y="21" width="3" height="3" fill="#23262E"/>
  <rect x="12" y="21" width="15" height="3" fill="#C0453B"/>
  <rect x="27" y="21" width="3" height="3" fill="#E8A79F"/>
  <rect x="30" y="21" width="9" height="3" fill="#C0453B"/>
  <rect x="6" y="24" width="6" height="3" fill="#23262E"/>
  <rect x="12" y="24" width="18" height="3" fill="#C0453B"/>
  <rect x="30" y="24" width="3" height="3" fill="#E8A79F"/>
  <rect x="33" y="24" width="6" height="3" fill="#C0453B"/>
  <rect x="6" y="27" width="3" height="6" fill="#23262E"/>
  <rect x="12" y="27" width="3" height="6" fill="#23262E"/>
  <rect x="15" y="27" width="3" height="3" fill="#C0453B"/>
  <rect x="18" y="27" width="3" height="3" fill="#8A2F28"/>
  <rect x="21" y="27" width="18" height="3" fill="#C0453B"/>
  <rect x="39" y="27" width="6" height="3" fill="#23262E"/>
  <rect x="15" y="30" width="27" height="3" fill="#C0453B"/>
  <rect x="42" y="30" width="3" height="3" fill="#23262E"/>
  <rect x="15" y="33" width="3" height="3" fill="#23262E"/>
  <rect x="18" y="33" width="18" height="3" fill="#C0453B"/>
  <rect x="36" y="33" width="6" height="3" fill="#23262E"/>
  <rect x="18" y="36" width="18" height="3" fill="#23262E"/>
</svg>
