<svg xmlns="http://www.w3.org/2000/svg" width="48" height="48" viewBox="0 0 48 48" shape-rendering="crispEdges">
  <rect x="6" y="0" width="9" height="3" fill="#23262E"/>
  <rect x="15" y="0" width="15" height="3" fill="#E8B23C"/>
  <rect x="30" y="0" width="9" height="3" fill="#23262E"/>
  <rect x="3" y="3" width="6" height="3" fill="#23262E"/>
  <rect x="9" y="3" width="3" height="3" fill="#E8B23C"/>
  <rect x="12" y="3" width="6" height="3" fill="#F5D98A"/>
  <rect x="18" y="3" width="3" height="3" fill="#E8B23C"/>
  <rect x="21" y="3" width="3" height="3" fill="#23262E"/>
  <rect x="24" y="3" width="12" height="3" fill="#E8B23C"/>
  <rect x="36" y="3" width="6" height="3" fill="#23262E"/>
  <rect x="0" y="6" width="6" height="3" fill="#23262E"/>
  <rect x="6" y="6" width="3" height="3" fill="#E8B23C"/>
  <rect x="9" y="6" width="3" height="3" fill="#F5D98A"/>
  <rect x="12" y="6" width="21" height="3" fill="#23262E"/>
  <rect x="33" y="6" width="6" height="3" fill="#E8B23C"/>
  <rect x="39" y="6" width="6" height="3" fill="#23262E"/>
  <rect x="0" y="9" width="3" height="6" fill="#23262E"/>
  <rect x="3" y="9" width="3" height="3" fill="#E8B23C"/>
  <rect x="6" y="9" width="3" height="3" fill="#F5D98A"/>
  <rect x="9" y="9" width="6" height="3" fill="#23262E"/>
  <rect x="15" y="9" width="12" height="6" fill="#F7FAFF"/>
  <rect x="27" y="9" width="9" height="3" fill="#23262E"/>
  <rect x="36" y="9" width="6" height="3" fill="#E8B23C"/>
  <rect x="42" y="9" width="3" height="3" fill="#23262E"/>
  <rect x="3" y="12" width="3" height="9" fill="#F5D98A"/>
  <rect x="6" y="12" width="9" height="3" fill="#23262E"/>
  <rect x="27" y="12" width="12" height="3" fill="#23262E"/>
  <rect x="39" y="12" width="3" height="3" fill="#E8B23C"/>
  <rect x="42" y="12" width="6" height="3" fill="#23262E"/>
  <rect x="0" y="15" width="3" height="6" fill="#E8B23C"/>
  <rect x="6" y="15" width="3" height="6" fill="#23262E"/>
  <rect x="9" y="15" width="27" height="12" fill="#F7FAFF"/>
  <rect x="36" y="15" width="3" height="6" fill="#23262E"/>
  <rect x="39" y="15" width="6" height="6" fill="#E8B23C"/>
  <rect x="45" y="15" width="3" height="15" fill="#23262E"/>
  <rect x="0" y="21" width="3" height="3" fill="#F5D98A"/>
  <rect x="3" y="21" width="6" height="3" fill="#23262E"/>
  <rect x="36" y="21" width="6" height="3" fill="#23262E"/>
  <rect x="42" y="21" width="3" height="3" fill="#E8B23C"/>
  <rect x="0" y="24" width="6" height="3" fill="#E8B23C"/>
  <rect x="6" y="24" width="3" height="3" fill="#23262E"/>
  <rect x="36" y="24" width="3" height="3" fill="#23262E"/>
  <rect x="39" y="24" width="6" height="3" fill="#E8B23C"/>
  <rect x="0" y="27" width="6" height="3" fill="#B07E22"/>
  <rect x="6" y="27" width="9" height="6" fill="#23262E"/>
  <rect x="15" y="27" width="12" height="9" fill="#F7FAFF"/>
  <rect x="27" y="27" width="12" height="3" fill="#23262E"/>
  <rect x="39" y="27" width="6" height="3" fill="#B07E22"/>
  <rect x="0" y="30" width="3" height="6" fill="#23262E"/>
  <rect x="3" y="30" width="3" height="3" fill="#B07E22"/>
  <rect x="27" y="30" width="3" height="3" fill="#23262E"/>
  <rect x="33" y="30" width="6" height="3" fill="#23262E"/>
  <rect x="39" y="30" width="3" height="3" fill="#B07E22"/>
  <rect x="42" y="30" width="6" height="3" fill="#23262E"/>
  <rect x="3" y="33" width="6" height="3" fill="#B07E22"/>
  <rect x="9" y="33" width="6" height="3" fill="#23262E"/>
  <rect x="27" y="33" width="9" height="3" fill="#23262E"/>
  <rect x="36" y="33" width="6" height="3" fill="#B07E22"/>
  <rect x="42" y="33" width="3" height="3" fill="#23262E"/>
  <rect x="0" y="36" width="6" height="3" fill="#23262E"/>
  <rect x="6" y="36" width="6" height="3" fill="#B07E22"/>
  <rect x="12" y="36" width="21" height="3" fill="#23262E"/>
  <rect x="33" y="36" width="6" height="3" fill="#B07E22"/>
  <rect x="39" y="36" width="6" height="3" fill="#23262E"/>
  <rect x="3" y="39" width="6" height="3" fill="#23262E"/>
  <rect x="9" y="39" width="12" height="3" fill="#B07E22"/>
  <rect x="21" y="39" width="3" height="3" fill="#23262E"/>
  <rect x="24" y="39" width="12" height="3" fill="#B07E22"/>
  <rect x="36" y="39" width="6" height="3" fill="#23262E"/>
  <rect x="6" y="42" width="9" height="3" fill="#23262E"/>
  <rect x="15" y="42" width="15" height="3" fill="#B07E22"/>
  <rect x="30" y="42" width="9" height="3" fill="#23262E"/>
  <rect x="12" y="45" width="21" height="3" fill="#23262E"/>
</svg>
