<svg xmlns="http://www.w3.org/2000/svg" width="48" height="48" viewBox="0 0 48 48" shape-rendering="crispEdges">
  <rect x="0" y="0" width="48" height="3" fill="#A8D8EC"/>
  <rect x="0" y="3" width="3" height="45" fill="#A8D8EC"/>
  <rect x="3" y="3" width="45" height="6" fill="#5FA9CC"/>
  <rect x="3" y="9" width="6" height="30" fill="#5FA9CC"/>
  <rect x="9" y="9" width="30" height="3" fill="#23262E"/>
  <rect x="39" y="9" width="9" height="30" fill="#5FA9CC"/>
  <rect x="9" y="12" width="3" height="24" fill="#23262E"/>
  <rect x="36" y="12" width="3" height="24" fill="#23262E"/>
  <rect x="15" y="15" width="18" height="3" fill="#23262E"/>
  <rect x="15" y="18" width="3" height="12" fill="#23262E"/>
  <rect x="18" y="18" width="12" height="3" fill="#A8D8EC"/>
  <rect x="30" y="18" width="3" height="12" fill="#23262E"/>
  <rect x="18" y="21" width="12" height="9" fill="#3B7C96"/>
  <rect x="15" y="30" width="18" height="3" fill="#23262E"/>
  <rect x="9" y="36" width="30" height="3" fill="#23262E"/>
  <rect x="3" y="39" width="45" height="9" fill="#5FA9CC"/>
</svg>
