<svg xmlns="http://www.w3.org/2000/svg" width="48" height="48" viewBox="0 0 48 48" shape-rendering="crispEdges">
  <rect x="12" y="3" width="24" height="3" fill="#23262E"/>
  <rect x="9" y="6" width="6" height="3" fill="#23262E"/>
  <rect x="15" y="6" width="18" height="3" fill="#EAF4FA"/>
  <rect x="33" y="6" width="6" height="3" fill="#23262E"/>
  <rect x="6" y="9" width="6" height="3" fill="#23262E"/>
  <rect x="12" y="9" width="24" height="3" fill="#EAF4FA"/>
  <rect x="36" y="9" width="6" height="3" fill="#23262E"/>
  <rect x="3" y="12" width="6" height="3" fill="#23262E"/>
  <rect x="9" y="12" width="30" height="3" fill="#EAF4FA"/>
  <rect x="39" y="12" width="6" height="3" fill="#23262E"/>
  <rect x="3" y="15" width="3" height="18" fill="#23262E"/>
  <rect x="6" y="15" width="36" height="3" fill="#EAF4FA"/>
  <rect x="42" y="15" width="3" height="18" fill="#23262E"/>
  <rect x="6" y="18" width="33" height="3" fill="#EAF4FA"/>
  <rect x="39" y="18" width="3" height="3" fill="#A8D8EC"/>
  <rect x="6" y="21" width="30" height="3" fill="#EAF4FA"/>
  <rect x="36" y="21" width="6" height="3" fill="#A8D8EC"/>
  <rect x="6" y="24" width="27" height="3" fill="#EAF4FA"/>
  <rect x="33" y="24" width="9" height="3" fill="#A8D8EC"/>
  <rect x="6" y="27" width="24" height="3" fill="#EAF4FA"/>
  <rect x="30" y="27" width="9" height="3" fill="#A8D8EC"/>
  <rect x="39" y="27" width="3" height="6" fill="#EAF4FA"/>
  <rect x="6" y="30" width="21" height="3" fill="#EAF4FA"/>
  <rect x="27" y="30" width="9" height="3" fill="#A8D8EC"/>
  <rect x="36" y="30" width="3" height="3" fill="#5FA9CC"/>
  <rect x="3" y="33" width="6" height="3" fill="#23262E"/>
  <rect x="9" y="33" width="15" height="3" fill="#EAF4FA"/>
  <rect x="24" y="33" width="9" height="3" fill="#A8D8EC"/>
  <rect x="33" y="33" width="3" height="3" fill="#5FA9CC"/>
  <rect x="36" y="33" width="3" height="3" fill="#EAF4FA"/>
  <rect x="39" y="33" width="6" height="3" fill="#23262E"/>
  <rect x="6" y="36" width="6" height="3" fill="#23262E"/>
  <rect x="12" y="36" width="9" height="3" fill="#EAF4FA"/>
  <rect x="21" y="36" width="9" height="3" fill="#A8D8EC"/>
  <rect x="30" y="36" width="3" height="3" fill="#5FA9CC"/>
  <rect x="33" y="36" width="3" height="3" fill="#EAF4FA"/>
  <rect x="36" y="36" width="6" height="3" fill="#23262E"/>
  <rect x="9" y="39" width="6" height="3" fill="#23262E"/>
  <rect x="15" y="39" width="3" height="3" fill="#EAF4FA"/>
  <rect x="18" y="39" width="9" height="3" fill="#A8D8EC"/>
  <rect x="27" y="39" width="6" height="3" fill="#EAF4FA"/>
  <rect x="33" y="39" width="6" height="3" fill="#23262E"/>
  <rect x="12" y="42" width="24" height="3" fill="#23262E"/>
</svg>
