<svg xmlns="http://www.w3.org/2000/svg" width="48" height="48" viewBox="0 0 48 48" shape-rendering="crispEdges">
<title>刺客</title>
<!-- assassin · 刺客 · 16x16 字符草图（每字符 = 3x3px，'.' = 透明）
     调色板: K=#23262E  V=#5B3A8C  v=#3A2560  Y=#C9CDD6  W=#FFFFFF  w=#9AA0AC
     . . . . . . . . . . . . . . . .
     . . . . . . . . . . . . . . . .
     . . . . . . . . . . . . . . . .
     . . . . . . . . . . . . . . . .
     . . . . . K K K K K K . . . . .
     . . . . K V V V V V V K . . . .
     . . . K V V V V V V V V K . . .
     . . . K W W V V V V W W K . . .
     . . . K K K K K K K K K K . . .
     . . . K v v v v v v v v K . . .
     . . K K v v w v v w v v K K . .
     . Y K K v v v v v v v v K K Y .
     . . K Y K v v v v v v K Y K . .
     . . . K Y K v v v v K Y K . . .
     . . . . K Y K K K K Y K . . . .
     . . . . . K K K K K K . . . . .
-->
<rect x="15" y="12" width="18" height="3" fill="#23262E"/>
<rect x="12" y="15" width="3" height="3" fill="#23262E"/>
<rect x="15" y="15" width="18" height="3" fill="#5B3A8C"/>
<rect x="33" y="15" width="3" height="3" fill="#23262E"/>
<rect x="9" y="18" width="3" height="3" fill="#23262E"/>
<rect x="12" y="18" width="24" height="3" fill="#5B3A8C"/>
<rect x="36" y="18" width="3" height="3" fill="#23262E"/>
<rect x="9" y="21" width="3" height="3" fill="#23262E"/>
<rect x="12" y="21" width="6" height="3" fill="#FFFFFF"/>
<rect x="18" y="21" width="12" height="3" fill="#5B3A8C"/>
<rect x="30" y="21" width="6" height="3" fill="#FFFFFF"/>
<rect x="36" y="21" width="3" height="3" fill="#23262E"/>
<rect x="9" y="24" width="30" height="3" fill="#23262E"/>
<rect x="9" y="27" width="3" height="3" fill="#23262E"/>
<rect x="12" y="27" width="24" height="3" fill="#3A2560"/>
<rect x="36" y="27" width="3" height="3" fill="#23262E"/>
<rect x="6" y="30" width="6" height="3" fill="#23262E"/>
<rect x="12" y="30" width="6" height="3" fill="#3A2560"/>
<rect x="18" y="30" width="3" height="3" fill="#9AA0AC"/>
<rect x="21" y="30" width="6" height="3" fill="#3A2560"/>
<rect x="27" y="30" width="3" height="3" fill="#9AA0AC"/>
<rect x="30" y="30" width="6" height="3" fill="#3A2560"/>
<rect x="36" y="30" width="6" height="3" fill="#23262E"/>
<rect x="3" y="33" width="3" height="3" fill="#C9CDD6"/>
<rect x="6" y="33" width="6" height="3" fill="#23262E"/>
<rect x="12" y="33" width="24" height="3" fill="#3A2560"/>
<rect x="36" y="33" width="6" height="3" fill="#23262E"/>
<rect x="42" y="33" width="3" height="3" fill="#C9CDD6"/>
<rect x="6" y="36" width="3" height="3" fill="#23262E"/>
<rect x="9" y="36" width="3" height="3" fill="#C9CDD6"/>
<rect x="12" y="36" width="3" height="3" fill="#23262E"/>
<rect x="15" y="36" width="18" height="3" fill="#3A2560"/>
<rect x="33" y="36" width="3" height="3" fill="#23262E"/>
<rect x="36" y="36" width="3" height="3" fill="#C9CDD6"/>
<rect x="39" y="36" width="3" height="3" fill="#23262E"/>
<rect x="9" y="39" width="3" height="3" fill="#23262E"/>
<rect x="12" y="39" width="3" height="3" fill="#C9CDD6"/>
<rect x="15" y="39" width="3" height="3" fill="#23262E"/>
<rect x="18" y="39" width="12" height="3" fill="#3A2560"/>
<rect x="30" y="39" width="3" height="3" fill="#23262E"/>
<rect x="33" y="39" width="3" height="3" fill="#C9CDD6"/>
<rect x="36" y="39" width="3" height="3" fill="#23262E"/>
<rect x="12" y="42" width="3" height="3" fill="#23262E"/>
<rect x="15" y="42" width="3" height="3" fill="#C9CDD6"/>
<rect x="18" y="42" width="12" height="3" fill="#23262E"/>
<rect x="30" y="42" width="3" height="3" fill="#C9CDD6"/>
<rect x="33" y="42" width="3" height="3" fill="#23262E"/>
<rect x="15" y="45" width="18" height="3" fill="#23262E"/>
</svg>
