<!--
archetypeId: avatar
name: 化身
palette: K=#23262E C=#7FE8FF c=#3AA8C9 P=#B0A8E8 W=#FFFFFF V=#4A3D7A

   0123456789012345
 00 ................
 01 ................
 02 .....KKKKKK.....
 03 ...KK......KK...
 04 ..K..KKKKKK..K..
 05 .K..KPPPPPPK..K.
 06 .K..KPWWWWPK..K.
 07 KK..KPWCCWPK..KK
 08 KK...KCCCCK...KK
 09 KK...KCCCCK...KK
 10 KK..KPWCCWPK..KK
 11 .K..KPWWWWPK..K.
 12 .K..KPPPPPPK..K.
 13 ..K..KKKKKK..K..
 14 ...KK......KK...
 15 .....KKKKKK.....
-->
<svg xmlns="http://www.w3.org/2000/svg" width="48" height="48" viewBox="0 0 48 48" shape-rendering="crispEdges">
<title>化身 avatar</title>
<rect x="15" y="6" width="18" height="3" fill="#23262E"/>
<rect x="9" y="9" width="6" height="3" fill="#23262E"/>
<rect x="33" y="9" width="6" height="3" fill="#23262E"/>
<rect x="6" y="12" width="3" height="3" fill="#23262E"/>
<rect x="15" y="12" width="18" height="3" fill="#23262E"/>
<rect x="39" y="12" width="3" height="3" fill="#23262E"/>
<rect x="3" y="15" width="3" height="3" fill="#23262E"/>
<rect x="12" y="15" width="3" height="3" fill="#23262E"/>
<rect x="15" y="15" width="18" height="3" fill="#B0A8E8"/>
<rect x="33" y="15" width="3" height="3" fill="#23262E"/>
<rect x="42" y="15" width="3" height="3" fill="#23262E"/>
<rect x="3" y="18" width="3" height="3" fill="#23262E"/>
<rect x="12" y="18" width="3" height="3" fill="#23262E"/>
<rect x="15" y="18" width="3" height="3" fill="#B0A8E8"/>
<rect x="18" y="18" width="12" height="3" fill="#FFFFFF"/>
<rect x="30" y="18" width="3" height="3" fill="#B0A8E8"/>
<rect x="33" y="18" width="3" height="3" fill="#23262E"/>
<rect x="42" y="18" width="3" height="3" fill="#23262E"/>
<rect x="0" y="21" width="6" height="3" fill="#23262E"/>
<rect x="12" y="21" width="3" height="3" fill="#23262E"/>
<rect x="15" y="21" width="3" height="3" fill="#B0A8E8"/>
<rect x="18" y="21" width="3" height="3" fill="#FFFFFF"/>
<rect x="21" y="21" width="6" height="3" fill="#7FE8FF"/>
<rect x="27" y="21" width="3" height="3" fill="#FFFFFF"/>
<rect x="30" y="21" width="3" height="3" fill="#B0A8E8"/>
<rect x="33" y="21" width="3" height="3" fill="#23262E"/>
<rect x="42" y="21" width="6" height="3" fill="#23262E"/>
<rect x="0" y="24" width="6" height="3" fill="#23262E"/>
<rect x="15" y="24" width="3" height="3" fill="#23262E"/>
<rect x="18" y="24" width="12" height="3" fill="#7FE8FF"/>
<rect x="30" y="24" width="3" height="3" fill="#23262E"/>
<rect x="42" y="24" width="6" height="3" fill="#23262E"/>
<rect x="0" y="27" width="6" height="3" fill="#23262E"/>
<rect x="15" y="27" width="3" height="3" fill="#23262E"/>
<rect x="18" y="27" width="12" height="3" fill="#3AA8C9"/>
<rect x="30" y="27" width="3" height="3" fill="#23262E"/>
<rect x="42" y="27" width="6" height="3" fill="#23262E"/>
<rect x="0" y="30" width="6" height="3" fill="#23262E"/>
<rect x="12" y="30" width="3" height="3" fill="#23262E"/>
<rect x="15" y="30" width="3" height="3" fill="#B0A8E8"/>
<rect x="18" y="30" width="3" height="3" fill="#FFFFFF"/>
<rect x="21" y="30" width="6" height="3" fill="#3AA8C9"/>
<rect x="27" y="30" width="3" height="3" fill="#FFFFFF"/>
<rect x="30" y="30" width="3" height="3" fill="#B0A8E8"/>
<rect x="33" y="30" width="3" height="3" fill="#23262E"/>
<rect x="42" y="30" width="6" height="3" fill="#23262E"/>
<rect x="3" y="33" width="3" height="3" fill="#23262E"/>
<rect x="12" y="33" width="3" height="3" fill="#23262E"/>
<rect x="15" y="33" width="18" height="3" fill="#B0A8E8"/>
<rect x="33" y="33" width="3" height="3" fill="#23262E"/>
<rect x="42" y="33" width="3" height="3" fill="#23262E"/>
<rect x="3" y="36" width="3" height="3" fill="#23262E"/>
<rect x="12" y="36" width="3" height="3" fill="#23262E"/>
<rect x="15" y="36" width="18" height="3" fill="#B0A8E8"/>
<rect x="33" y="36" width="3" height="3" fill="#23262E"/>
<rect x="42" y="36" width="3" height="3" fill="#23262E"/>
<rect x="6" y="39" width="3" height="3" fill="#23262E"/>
<rect x="15" y="39" width="18" height="3" fill="#23262E"/>
<rect x="39" y="39" width="3" height="3" fill="#23262E"/>
<rect x="9" y="42" width="6" height="3" fill="#23262E"/>
<rect x="33" y="42" width="6" height="3" fill="#23262E"/>
<rect x="15" y="45" width="18" height="3" fill="#23262E"/>
</svg>
