<svg xmlns="http://www.w3.org/2000/svg" width="48" height="48" viewBox="0 0 48 48" shape-rendering="crispEdges">
<title>剑士</title>
<!-- knight · 剑士 · 16x16 字符草图（每字符 = 3x3px，'.' = 透明）
     调色板: K=#23262E  A=#A8B2C0  a=#6E7887  R=#C0392B  Y=#D4C05A  W=#FFFFFF
     . . . . . . . . . . . . . . . .
     . . . . . . . . . . . . . . . .
     . . . . . . . . . . . . . . . .
     . . . . . . . . . . K R R K . .
     . . . . K K K K . . . R R K . .
     . . . K A A A A K . K A A K . .
     . . . K A K K A K . K A A K . .
     . . . K A A A A K . K A A K . .
     . . K K A A A A K K K A A K . .
     . . K A A Y Y A A K A A K . . .
     . . K A A Y Y A A K A A K . . .
     . . K a A A A A a K K K K . . .
     . . K a A A A A a K . . . . . .
     . . K a a a a a a K . . . . . .
     . . K a a K K a a K . . . . . .
     . . K K K K K K K K . . . . . .
-->
<rect x="30" y="9" width="3" height="3" fill="#23262E"/>
<rect x="33" y="9" width="6" height="3" fill="#C0392B"/>
<rect x="39" y="9" width="3" height="3" fill="#23262E"/>
<rect x="12" y="12" width="12" height="3" fill="#23262E"/>
<rect x="33" y="12" width="6" height="3" fill="#C0392B"/>
<rect x="39" y="12" width="3" height="3" fill="#23262E"/>
<rect x="9" y="15" width="3" height="3" fill="#23262E"/>
<rect x="12" y="15" width="12" height="3" fill="#A8B2C0"/>
<rect x="24" y="15" width="3" height="3" fill="#23262E"/>
<rect x="30" y="15" width="3" height="3" fill="#23262E"/>
<rect x="33" y="15" width="6" height="3" fill="#A8B2C0"/>
<rect x="39" y="15" width="3" height="3" fill="#23262E"/>
<rect x="9" y="18" width="3" height="3" fill="#23262E"/>
<rect x="12" y="18" width="3" height="3" fill="#A8B2C0"/>
<rect x="15" y="18" width="6" height="3" fill="#23262E"/>
<rect x="21" y="18" width="3" height="3" fill="#A8B2C0"/>
<rect x="24" y="18" width="3" height="3" fill="#23262E"/>
<rect x="30" y="18" width="3" height="3" fill="#23262E"/>
<rect x="33" y="18" width="6" height="3" fill="#A8B2C0"/>
<rect x="39" y="18" width="3" height="3" fill="#23262E"/>
<rect x="9" y="21" width="3" height="3" fill="#23262E"/>
<rect x="12" y="21" width="12" height="3" fill="#A8B2C0"/>
<rect x="24" y="21" width="3" height="3" fill="#23262E"/>
<rect x="30" y="21" width="3" height="3" fill="#23262E"/>
<rect x="33" y="21" width="6" height="3" fill="#A8B2C0"/>
<rect x="39" y="21" width="3" height="3" fill="#23262E"/>
<rect x="6" y="24" width="6" height="3" fill="#23262E"/>
<rect x="12" y="24" width="12" height="3" fill="#A8B2C0"/>
<rect x="24" y="24" width="9" height="3" fill="#23262E"/>
<rect x="33" y="24" width="6" height="3" fill="#A8B2C0"/>
<rect x="39" y="24" width="3" height="3" fill="#23262E"/>
<rect x="6" y="27" width="3" height="3" fill="#23262E"/>
<rect x="9" y="27" width="6" height="3" fill="#A8B2C0"/>
<rect x="15" y="27" width="6" height="3" fill="#D4C05A"/>
<rect x="21" y="27" width="6" height="3" fill="#A8B2C0"/>
<rect x="27" y="27" width="3" height="3" fill="#23262E"/>
<rect x="30" y="27" width="6" height="3" fill="#A8B2C0"/>
<rect x="36" y="27" width="3" height="3" fill="#23262E"/>
<rect x="6" y="30" width="3" height="3" fill="#23262E"/>
<rect x="9" y="30" width="6" height="3" fill="#A8B2C0"/>
<rect x="15" y="30" width="6" height="3" fill="#D4C05A"/>
<rect x="21" y="30" width="6" height="3" fill="#A8B2C0"/>
<rect x="27" y="30" width="3" height="3" fill="#23262E"/>
<rect x="30" y="30" width="6" height="3" fill="#A8B2C0"/>
<rect x="36" y="30" width="3" height="3" fill="#23262E"/>
<rect x="6" y="33" width="3" height="3" fill="#23262E"/>
<rect x="9" y="33" width="3" height="3" fill="#6E7887"/>
<rect x="12" y="33" width="12" height="3" fill="#A8B2C0"/>
<rect x="24" y="33" width="3" height="3" fill="#6E7887"/>
<rect x="27" y="33" width="12" height="3" fill="#23262E"/>
<rect x="6" y="36" width="3" height="3" fill="#23262E"/>
<rect x="9" y="36" width="3" height="3" fill="#6E7887"/>
<rect x="12" y="36" width="12" height="3" fill="#A8B2C0"/>
<rect x="24" y="36" width="3" height="3" fill="#6E7887"/>
<rect x="27" y="36" width="3" height="3" fill="#23262E"/>
<rect x="6" y="39" width="3" height="3" fill="#23262E"/>
<rect x="9" y="39" width="18" height="3" fill="#6E7887"/>
<rect x="27" y="39" width="3" height="3" fill="#23262E"/>
<rect x="6" y="42" width="3" height="3" fill="#23262E"/>
<rect x="9" y="42" width="6" height="3" fill="#6E7887"/>
<rect x="15" y="42" width="6" height="3" fill="#23262E"/>
<rect x="21" y="42" width="6" height="3" fill="#6E7887"/>
<rect x="27" y="42" width="3" height="3" fill="#23262E"/>
<rect x="6" y="45" width="24" height="3" fill="#23262E"/>
</svg>
